<svg xmlns="http://www.w3.org/2000/svg" version="1.1" xmlns:xlink="http://www.w3.org/1999/xlink" xmlns:svgjs="http://svgjs.com/svgjs" width="1920" height="1980" preserveAspectRatio="none" viewBox="0 0 1920 1980"><g mask="url(&quot;#SvgjsMask1012&quot;)" fill="none"><rect width="1920" height="1980" x="0" y="0" fill="#0e2a47"></rect><path d="M 0,347 C 76.8,651.4 230.4,1764.8 384,1869 C 537.6,1973.2 614.4,995 768,868 C 921.6,741 998.4,1332.4 1152,1234 C 1305.6,1135.6 1382.4,384.4 1536,376 C 1689.6,367.6 1843.2,1028.8 1920,1192L1920 1980L0 1980z" fill="#184a7e"></path><path d="M 0,1832 C 128,1587.2 384,706 640,608 C 896,510 1024,1318 1280,1342 C 1536,1366 1792,850.8 1920,728L1920 1980L0 1980z" fill="#2264ab"></path></g><defs><mask id="SvgjsMask1012"><rect width="1920" height="1980" fill="#ffffff"></rect></mask></defs></svg>